# xmcd
#
# Track frame offsets:
#	150
#	16417
#	33992
#	46756
#	64415
#	81605
#	101021
#	112959
#	126708
#	152131
#	169086
#	193922
#
# Disc length: 2778 seconds
#
# Revision: 1
# Processed by: cddbd v1.5.2PL0 Copyright (c) Steve Scherf et al.
# Submitted via: audiograbber 1.83.01
#
DISCID=a90ad80c
DTITLE=Tom Astor - Ein Abend mit Tom Astor CD 2
DYEAR=2016
DGENRE=Country
TTITLE0=Ich hab im Leben nur Gas gegeben
TTITLE1=Wir woll'n leben solange wir leben (Red River Valley)
TTITLE2=Some Broken Hearts Never Mend
TTITLE3=Jenseits der Zeit  ( O Waly, Waly)  (feat. Michael Hirte)
TTITLE4=Johnny Cash Hit Medley
TTITLE5=Lucille
TTITLE6=Du willst mich nicht verbiegen
TTITLE7=Mit voller Kraft voraus
TTITLE8=Orange Blossom Special
TTITLE9=Hallo, guten Morgen Deutschland  (feat. Michael Hirte)
TTITLE10=Junger Adler  (feat. Michael Hirte)
TTITLE11=Alles klar - kein Problem
EXTD=
EXTT0=
EXTT1=
EXTT2=
EXTT3=
EXTT4=
EXTT5=
EXTT6=
EXTT7=
EXTT8=
EXTT9=
EXTT10=
EXTT11=
PLAYORDER=
